<svg xmlns="http://www.w3.org/2000/svg" viewBox="0 0 500 400" fill="none">
  <rect width="500" height="400" fill="#f7f6f2"/>
  <!-- Side elevation: mug wall + handle -->
  <path d="M 140,95 L 260,95 L 260,310 L 140,310 C 118,310 102,292 102,270 L 102,135 C 102,113 118,95 140,95 Z" fill="white" stroke="#222" stroke-width="2.5"/>
  <line x1="260" y1="95" x2="340" y2="95" stroke="#222" stroke-width="2"/>
  <line x1="260" y1="310" x2="340" y2="310" stroke="#222" stroke-width="2"/>
  <ellipse cx="140" cy="95" rx="38" ry="14" fill="white" stroke="#222" stroke-width="2"/>
  <ellipse cx="140" cy="310" rx="38" ry="14" fill="#ece9e4" stroke="#222" stroke-width="2"/>
  <path d="M 260,130 C 360,130 410,160 410,202 C 410,244 360,274 260,274" fill="none" stroke="#222" stroke-width="2.5" stroke-linecap="round"/>
  <path d="M 260,155 C 335,155 382,175 382,202 C 382,229 335,249 260,249" fill="none" stroke="#bbb" stroke-width="1.2" stroke-linecap="round"/>
  <rect x="118" y="125" width="100" height="155" rx="4" fill="none" stroke="#e67e22" stroke-width="1.8" stroke-dasharray="9,5"/>
  <text x="168" y="208" text-anchor="middle" fill="#e67e22" font-size="12" font-family="system-ui,sans-serif" font-weight="600">HANDLE</text>
  <text x="168" y="228" text-anchor="middle" fill="#a0a0a0" font-size="9" font-family="system-ui,sans-serif">Side / wrap</text>
</svg>
