<svg width="256" height="256" viewBox="0 0 256 256" fill="none" xmlns="http://www.w3.org/2000/svg" role="img" aria-label="PrimeDraft favicon">
  <defs>
    <linearGradient id="pdFavGrad" x1="56" y1="40" x2="198" y2="212" gradientUnits="userSpaceOnUse">
      <stop stop-color="#22D3EE"/>
      <stop offset="1" stop-color="#4F46E5"/>
    </linearGradient>
  </defs>
  <rect x="20" y="20" width="216" height="216" rx="48" fill="#0F172A"/>
  <path d="M74 196V64H128C150 64 168 82 168 104C168 126 150 144 128 144H106V196H74Z" fill="url(#pdFavGrad)"/>
  <path d="M106 118H126C133 118 138 113 138 104C138 95 133 90 126 90H106V118Z" fill="#0F172A"/>
  <path d="M160 196L128 150L156 136L194 196H160Z" fill="#38BDF8"/>
  <path d="M186 54L204 72L166 112L148 94L186 54Z" fill="#A78BFA"/>
</svg>
